<?xml version="1.0" standalone="no"?>
<!DOCTYPE svg PUBLIC "-//W3C//DTD SVG 20010904//EN"
 "http://www.w3.org/TR/2001/REC-SVG-20010904/DTD/svg10.dtd">
<svg version="1.0" xmlns="http://www.w3.org/2000/svg"
 width="206.000000pt" height="200.000000pt" viewBox="0 0 206.000000 200.000000"
 preserveAspectRatio="xMidYMid meet">
<metadata>
Created by potrace 1.15, written by Peter Selinger 2001-2017
</metadata>
<g transform="translate(0.000000,200.000000) scale(0.100000,-0.100000)"
fill="#000000" stroke="none">
<path d="M775 1979 c-14 -7 -11 -7 13 -3 17 3 32 1 32 -4 0 -13 -64 -39 -145
-58 -38 -9 -75 -21 -82 -26 -7 -5 -13 -4 -15 3 -3 9 -9 9 -27 0 -18 -10 -20
-15 -11 -27 13 -15 0 -22 -76 -43 -41 -11 -161 -113 -156 -132 2 -8 -45 -75
-81 -114 -11 -12 8 26 40 80 21 35 16 32 -38 -25 -67 -71 -99 -122 -81 -128
11 -3 -21 -58 -42 -73 -5 -4 -6 -18 -3 -31 5 -18 -1 -35 -23 -64 -20 -27 -30
-51 -30 -77 0 -21 -12 -95 -26 -165 -30 -143 -30 -253 -1 -311 9 -19 17 -44
17 -56 0 -48 13 -86 26 -81 10 4 16 -6 20 -34 4 -21 15 -48 25 -59 11 -11 19
-23 19 -25 0 -11 64 -111 76 -118 7 -5 35 -39 63 -77 40 -54 68 -79 135 -120
46 -28 87 -51 91 -51 4 0 24 -10 44 -22 42 -26 60 -28 80 -9 12 11 17 10 28
-5 8 -11 19 -20 26 -20 7 -1 18 -2 26 -3 10 -1 11 -4 2 -15 -17 -20 6 -26 65
-15 27 6 63 7 81 4 25 -5 34 -2 43 15 7 13 7 20 0 20 -5 0 -10 5 -10 10 0 13
37 13 45 0 4 -6 15 -5 30 2 27 12 39 34 25 43 -17 10 -11 23 12 27 41 6 28 25
-27 40 -32 9 -55 11 -55 6 0 -6 -6 -8 -14 -5 -8 3 -17 1 -19 -6 -3 -9 -11 -8
-32 3 -22 12 -29 12 -33 2 -3 -10 -7 -10 -18 -1 -8 6 -33 12 -57 13 -23 1 -52
7 -64 14 -26 15 -63 16 -63 2 0 -5 -9 -10 -20 -10 -11 0 -20 7 -20 16 0 8 5
12 11 9 6 -4 5 2 -2 13 -7 12 -23 26 -36 33 -13 7 -23 16 -23 21 0 4 -5 8 -11
8 -6 0 -18 7 -27 16 -14 15 -17 15 -27 0 -17 -23 -22 -20 -29 15 -3 17 -10 28
-16 24 -11 -7 -66 27 -87 53 -17 21 -17 46 -1 36 7 -5 3 4 -9 19 -12 16 -24
41 -27 57 -3 17 -9 44 -12 61 -4 21 -10 29 -20 25 -17 -6 -17 -5 -4 28 7 19 6
29 -5 39 -8 8 -11 17 -8 21 4 3 1 6 -5 6 -6 0 -16 19 -22 43 -7 23 -18 53 -27
65 -12 20 -13 32 -3 72 6 27 9 58 5 70 -6 20 -8 21 -26 4 -21 -19 -24 -9 -9
32 10 26 11 26 33 8 13 -11 17 -13 10 -3 -13 17 -6 89 8 89 5 0 9 16 9 36 0
38 26 157 41 186 5 10 6 24 3 33 -4 9 1 21 11 29 9 6 18 25 18 41 2 23 14 36
70 72 37 24 65 48 62 54 -7 10 6 22 98 92 48 36 51 37 69 20 19 -17 19 -17 0
-24 -11 -4 -23 -12 -27 -18 -13 -21 14 -10 59 24 26 19 53 35 61 35 8 0 15 5
15 11 0 6 7 8 16 5 8 -3 25 -1 37 6 l22 12 -25 6 c-14 4 -35 3 -47 -1 -33 -12
-28 2 11 33 21 17 37 23 43 17 18 -18 113 -22 183 -9 61 11 67 15 52 26 -16
12 -15 13 6 14 12 0 22 5 22 10 0 16 -40 12 -46 -5 -7 -17 -59 -21 -69 -5 -3
6 -17 10 -31 10 -13 0 -24 6 -24 13 0 8 27 13 96 14 94 3 96 2 123 -26 15 -16
25 -34 23 -40 -2 -6 8 -11 22 -11 14 0 26 3 26 8 0 4 20 6 45 4 28 -3 45 0 45
7 0 22 31 10 70 -28 22 -21 40 -44 40 -50 0 -7 4 -10 9 -7 5 3 14 -1 21 -9 16
-19 29 -19 50 0 14 13 20 11 49 -15 18 -17 39 -30 46 -30 8 0 24 -13 36 -30
12 -16 25 -27 29 -25 4 3 20 -13 35 -36 18 -25 31 -36 35 -28 5 7 13 3 24 -12
9 -14 12 -25 6 -27 -15 -5 -12 -22 5 -22 8 0 21 -16 29 -35 8 -19 18 -35 21
-35 3 0 3 5 0 10 -3 6 -1 10 5 10 7 0 9 7 6 15 -21 52 -21 51 -2 36 12 -10 16
-23 13 -40 -3 -14 1 -37 9 -51 15 -24 15 -24 10 -2 -12 59 56 -23 74 -88 5
-20 14 -64 18 -98 7 -51 6 -60 -5 -51 -11 9 -13 0 -12 -52 l0 -64 20 53 c11
28 24 52 29 52 17 0 18 -45 4 -103 -15 -56 -15 -107 0 -152 6 -15 0 -24 -23
-38 -17 -10 -31 -25 -31 -33 0 -8 5 -12 10 -9 6 3 10 0 10 -7 0 -7 10 3 23 22
20 33 22 33 25 12 2 -13 -6 -39 -17 -58 -12 -19 -21 -42 -21 -50 0 -24 -29
-75 -71 -126 -40 -47 -51 -71 -24 -48 20 17 19 8 -6 -39 -11 -22 -18 -45 -14
-51 4 -6 -7 -15 -24 -21 -17 -6 -31 -18 -31 -26 0 -8 5 -11 13 -7 6 4 3 -3 -8
-16 -26 -30 -113 -94 -164 -121 -23 -11 -41 -25 -41 -30 0 -12 13 -12 25 0 6
6 27 17 48 26 41 17 48 6 17 -25 -15 -15 -33 -20 -75 -20 -72 0 -134 -28 -92
-43 23 -7 -67 -45 -96 -40 -20 4 -27 1 -27 -10 0 -8 -6 -18 -12 -21 -7 -3 11
-4 40 -2 37 2 59 9 72 24 19 20 109 56 127 50 13 -4 141 108 188 164 22 27 48
51 58 54 10 3 16 8 13 11 -9 9 15 34 25 27 11 -6 35 43 25 53 -3 4 -12 1 -18
-5 -7 -7 -16 -12 -21 -12 -10 0 45 70 91 116 26 27 39 56 67 154 19 67 37 153
40 191 4 68 -9 174 -25 194 -4 6 -11 37 -15 70 -6 51 -37 156 -74 248 -6 15
-17 27 -26 27 -9 0 -15 9 -15 23 0 12 -10 38 -23 59 -29 48 -247 254 -247 234
0 -11 -20 -3 -72 31 -40 26 -75 50 -76 55 -2 4 -8 6 -12 3 -8 -5 -72 13 -210
60 -25 9 -55 15 -65 14 -25 -3 -85 11 -85 20 0 10 -253 10 -275 0z"/>
<path d="M645 1580 c-14 -22 -34 -697 -22 -717 5 -7 29 -13 55 -14 26 0 67 -4
91 -7 l45 -7 -175 -89 c-96 -48 -181 -95 -189 -102 -22 -21 -4 -42 81 -92 297
-177 430 -252 446 -252 10 0 137 60 283 134 233 118 265 137 265 158 0 19 -28
39 -180 128 l-180 105 100 5 100 5 7 47 c3 26 8 190 10 365 l3 318 -96 6 c-53
4 -218 10 -366 14 -205 6 -272 4 -278 -5z m579 -77 l99 -6 -7 -236 c-4 -130
-9 -264 -12 -298 l-6 -62 -96 -3 -96 -3 -60 -105 -60 -104 -52 110 -52 111
-91 5 c-51 3 -94 8 -97 11 -3 3 -2 139 2 302 l7 298 211 -7 c116 -3 255 -9
310 -13z m-312 -823 c26 -55 54 -103 63 -106 23 -9 36 7 91 106 25 47 48 86
49 88 2 2 69 -36 150 -83 81 -48 143 -91 138 -96 -5 -5 -102 -56 -217 -114
l-208 -106 -177 104 c-97 57 -191 113 -209 123 -18 10 -31 22 -30 26 3 7 284
155 298 157 3 1 27 -44 52 -99z"/>
<path d="M1159 1401 c-16 -16 -29 -39 -29 -51 l0 -22 -160 7 c-145 7 -160 6
-166 -10 -4 -9 -2 -67 5 -128 8 -85 15 -115 28 -124 21 -16 299 -18 308 -3 3
5 17 72 31 147 16 91 29 140 39 146 18 10 20 38 3 55 -18 18 -26 15 -59 -17z
m-79 -137 c32 -7 32 -7 25 -53 -13 -93 -3 -86 -120 -83 -102 3 -105 4 -105 26
0 13 -3 44 -6 70 l-7 46 90 0 c50 0 105 -3 123 -6z"/>
</g>
</svg>
